<svg width="64" height="49" viewBox="0 0 64 49" fill="none" xmlns="http://www.w3.org/2000/svg">
<g clip-path="url(#clip0_248_43)">
<path d="M14.5455 48.0125V23.285L6.87675 16.2692L0 12.376V43.6487C0 46.0632 1.95625 48.0125 4.36375 48.0125H14.5455Z" fill="#4285F4"/>
<path d="M49.4546 48.0125H59.6363C62.0511 48.0125 64.0001 46.056 64.0001 43.6487V12.3762L56.2111 16.8355L49.4546 23.285V48.0125Z" fill="#34A853"/>
<path d="M14.5455 23.285L13.502 13.6232L14.5455 4.37598L32 17.467L49.4545 4.37598L50.6217 13.124L49.4545 23.285L32 36.376L14.5455 23.285Z" fill="#EA4335"/>
<path d="M49.4546 4.37604V23.285L64.0001 12.376V6.5578C64.0001 1.16155 57.8401 -1.91471 53.5276 1.32154L49.4546 4.37604Z" fill="#FBBC04"/>
<path d="M0 12.376L6.68975 17.3935L14.5455 23.285V4.37604L10.4725 1.32154C6.1525 -1.91496 0 1.16154 0 6.55754V12.376Z" fill="#C5221F"/>
</g>
<defs>
<clipPath id="clip0_248_43">
<rect width="64" height="48.25" fill="white"/>
</clipPath>
</defs>
</svg>
