<svg width="64" height="64" viewBox="0 0 64 64" fill="none" xmlns="http://www.w3.org/2000/svg">
<path d="M58.0005 1.49986H6.00049C4.82064 1.48786 3.68422 1.94439 2.84058 2.76928C1.99694 3.59417 1.51499 4.72005 1.50049 5.89986V58.1099C1.51762 59.2879 2.00072 60.4113 2.84407 61.234C3.68743 62.0567 4.82235 62.5119 6.00049 62.4999H58.0005C59.1804 62.5092 60.3161 62.0511 61.1593 61.2257C62.0025 60.4003 62.4847 59.2747 62.5005 58.0949V5.88486C62.4794 4.70851 61.9949 3.588 61.1523 2.76689C60.3097 1.94579 59.177 1.49045 58.0005 1.49986Z" fill="#0076B2"/>
<path d="M10.5305 24.3649H19.5855V53.4999H10.5305V24.3649ZM15.0605 9.86487C16.0991 9.86487 17.1143 10.1729 17.9778 10.75C18.8413 11.3271 19.5142 12.1473 19.9114 13.1069C20.3086 14.0665 20.4123 15.1224 20.2093 16.1409C20.0063 17.1595 19.5058 18.0949 18.7711 18.8289C18.0364 19.563 17.1004 20.0626 16.0817 20.2646C15.063 20.4666 14.0072 20.3619 13.048 19.9638C12.0888 19.5657 11.2692 18.892 10.6929 18.028C10.1166 17.164 9.80956 16.1484 9.81055 15.1099C9.81187 13.7183 10.3656 12.3843 11.35 11.4008C12.3344 10.4173 13.669 9.86487 15.0605 9.86487ZM25.2655 24.3649H33.9455V28.3649H34.0655C35.2755 26.0749 38.2256 23.6599 42.6306 23.6599C51.8006 23.6399 53.5005 29.6749 53.5005 37.4999V53.4999H44.4455V39.3249C44.4455 35.9499 44.3856 31.6049 39.7406 31.6049C35.0956 31.6049 34.3055 35.2849 34.3055 39.1049V53.4999H25.2655V24.3649Z" fill="white"/>
</svg>
