<svg width="64" height="64" viewBox="0 0 64 64" fill="none" xmlns="http://www.w3.org/2000/svg">
<g clip-path="url(#clip0_250_49)">
<path d="M49 0H15C6.71573 0 0 6.71573 0 15V49C0 57.2843 6.71573 64 15 64H49C57.2843 64 64 57.2843 64 49V15C64 6.71573 57.2843 0 49 0Z" fill="white"/>
<path d="M49 0H15C6.71573 0 0 6.71573 0 15V49C0 57.2843 6.71573 64 15 64H49C57.2843 64 64 57.2843 64 49V15C64 6.71573 57.2843 0 49 0Z" fill="#1D9BF0"/>
<path d="M49.893 22.8527C49.9205 23.2495 49.9205 23.6462 49.9205 24.0467C49.9205 36.246 40.6335 50.3155 23.6518 50.3155V50.308C18.635 50.3152 13.7223 48.8785 9.5 46.1692C10.2295 46.257 10.9625 46.3007 11.6975 46.3025C15.8555 46.3058 19.8939 44.9112 23.1637 42.3427C21.2372 42.3064 19.3702 41.6688 17.8237 40.5193C16.2772 39.3698 15.1286 37.7658 14.5385 35.9315C15.9217 36.1982 17.3476 36.1438 18.7065 35.7725C14.3995 34.9022 11.3007 31.118 11.3007 26.723V26.606C12.5847 27.3211 14.0217 27.7174 15.4908 27.7615C11.4343 25.0502 10.1838 19.6535 12.6333 15.434C14.9511 18.2862 17.843 20.619 21.1211 22.2807C24.3993 23.9425 27.9903 24.8961 31.661 25.0795C31.295 23.5041 31.3491 21.8602 31.8178 20.3123C32.2865 18.7643 33.1533 17.3665 34.3317 16.2587C38.0502 12.7632 43.8985 12.9425 47.394 16.659C49.4615 16.2508 51.4442 15.4928 53.2567 14.4177C52.5675 16.5554 51.1252 18.3699 49.1982 19.5237C51.0284 19.3081 52.8157 18.8182 54.5 18.0705C53.261 19.926 51.7009 21.5453 49.893 22.8527Z" fill="white"/>
</g>
<defs>
<clipPath id="clip0_250_49">
<rect width="64" height="64" fill="white"/>
</clipPath>
</defs>
</svg>
